# xmcd CD database file generated by Grip 2.96
# 
# Track frame offsets:
#       150
#       16612
#       34557
#       53175
#       70597
#       85720
#       100647
#       119677
#       138050
#       156607
#       176030
#       192987
#       210457
#       229492
# 
# Disc length: 3308 seconds
# 
# Revision: 0
# Processed by: cddbd v1.4PL0 Copyright (c) Steve Scherf et al.
# Submitted via: Grip 2.96
# 
DISCID=b50cea0e
DTITLE=just an Ordinary Woman - PAMELA MAYNARD
DYEAR=1900
DGENRE=
TTITLE0=I'd Rather go Blind
TTITLE1=Caught You With Your Pants Down
TTITLE2=Easy
TTITLE3=Wonderful World
TTITLE4=Emotions
TTITLE5=Dream Dream
TTITLE6=Wishing on a Star
TTITLE7=Place in the Sun
TTITLE8=Call Me Al
TTITLE9=Young Heart Run Free
TTITLE10=Pillow Talk
TTITLE11=Let it Be Me
TTITLE12=believe
TTITLE13=No Matter What
EXTD=
EXTT0=
EXTT1=
EXTT2=
EXTT3=
EXTT4=
EXTT5=
EXTT6=
EXTT7=
EXTT8=
EXTT9=
EXTT10=
EXTT11=
EXTT12=
EXTT13=
PLAYORDER=
